ply
format ascii 1.0
comment Cubo con color por vértice (CG 2026)
element vertex 8
property float x
property float y
property float z
property uchar red
property uchar green
property uchar blue
element face 12
property list uchar int vertex_indices
end_header
 1  1  1 255 255 255
-1  1  1 255   0 255
-1 -1  1 255   0   0
 1 -1  1 255 255   0
 1 -1 -1   0 255   0
 1  1 -1   0 255 255
-1  1 -1   0   0 255
-1 -1 -1   0   0   0
3 0 1 2
3 0 2 3
3 0 3 4
3 0 4 5
3 0 5 6
3 0 6 1
3 1 6 7
3 1 7 2
3 7 4 3
3 7 3 2
3 4 7 6
3 4 6 5
